<svg xmlns="http://www.w3.org/2000/svg" viewBox="0 0 255.644 219.78">
  <path d="M115.863 8.11h-6l-3-4V0h-3.5v4.055l-6-4.055h-8.5v4.055l7 4.055-7 2.5-4.5-2.5V0h-3.5v10.61h-3.5L74.863 0h-2.5v10.61l-5 4-8-3-3 3 8.5 6-2 3-10.5-7-5.5 7v5.5h10.5l-10.5 6h-5v-4.5l-4.5-1v5.5l-4.5 14v-5l-7.5-1.5v6.5l6.5 4-2.5 3-9-6.5-6 6.5 3.5 5.5h6l-5.5 7h-6v-6.5l-9.5 6.5 9 3.5 1 21-10-7v8.5l4.5 4.5h-4.5l8.5 10.78-4.5 6.72v3h7.5l-5.5 4.5 1.5 7.5-2.5 8.5h5l-10 8.5v5l16-11 2-4 4 1.5-3.5 13.5h8l9.5 16-3 4 1 4.5h8.5l5.5 4.5v-10l4.5.5v3.5l9 3.5-2.5-6 5-3.5 2.5 12 4-2.5-5.5 6 5 7-2.5 3-7.5-3-6.5 3 15.5 9v12.5h3.5l6-7.5 11.5 7.5 12.5-7.5 5.5 3.5 5-1.5v-4.5l3.5-4 2.5 7h5.959v-7.5l3.541-2 3.25 9.5 5.25-1.5 3 4.5h3.5v-11l7 7.5 4.5-.5v-9l4.5 3.5 5 13.5h5l5-7.5 13 7.5 11.5-7 6.5 7v-14.5l-7 1-2.5-5 6-6 9.5 6.5h8l-11-7.5-2.5-17 3-6.5 16.5 4v6.5l6-.5 5-8.5-11-11.5 3-7 5.5-.5 2.5 5.5v7.5l7 4v-7l-3.5-.5v-6.5h3.5l4 4 2.5-5.5-4.5-12-8.5-7-5.5-3 .5-3.5h5.5l-3-5.5h4.5l4 4.5 1-11-10.5-12.5-4.5-12.5 6.5 1 8-5-9-3v-3l9-1 1.5-3.5 5 1v-4l-4.5-2.5-1-4 5.5-4-6.5-1-6 7 2.5 5.5-3.5 1-5.5-8 1-2.5-2.5-5 2-3 4 4.5 7.5-6.5-9.5-2.5v-3l9.5-2 .5-4 6.5.5-16-6.5 9-8.5-12 3.5v-5.5l3.5-6-20-4 4 10-6.5 1-4-4.5-.5-5.5h-3.5l-5.5 3.5-2.5-13.5-9-7.11-4.5 2.61 2 3 5 3v4h-6.5l-5-4.5-8.5-.5-7-5-7.5-2.61-4.5 2.61 4 2.5 3.5 4.5-6 .5-6.5-3-.5-5 2.5-2.11h-4.5l-2 5.61-4 .5-.5-6.11h-4.75l2.25 4.11h-2.25L127.863 0h-6l-1 5.61z"/>
</svg>